<svg width="24" height="24" viewBox="0 0 24 24" fill="none" xmlns="http://www.w3.org/2000/svg">
<rect width="24" height="24" rx="2" fill="url(#paint0_linear_3427_8403)" fill-opacity="0.7"/>
<g clip-path="url(#clip0_3427_8403)">
<path d="M10.6665 12.667C10.9528 13.0497 11.3181 13.3664 11.7375 13.5956C12.157 13.8248 12.6208 13.961 13.0976 13.9952C13.5744 14.0293 14.0529 13.9605 14.5007 13.7935C14.9486 13.6264 15.3552 13.365 15.6932 13.027L17.6932 11.027C18.3004 10.3983 18.6363 9.55629 18.6288 8.6823C18.6212 7.80831 18.2706 6.97227 17.6526 6.35424C17.0345 5.73621 16.1985 5.38565 15.3245 5.37806C14.4505 5.37046 13.6085 5.70644 12.9798 6.31364L11.8332 7.45364" stroke="#379BFB" stroke-width="1.5" stroke-linecap="round" stroke-linejoin="round"/>
<path d="M13.3335 11.3338C13.0472 10.9511 12.6819 10.6344 12.2624 10.4052C11.843 10.176 11.3791 10.0397 10.9024 10.0056C10.4256 9.97144 9.94707 10.0402 9.49924 10.2073C9.0514 10.3743 8.64472 10.6358 8.3068 10.9738L6.3068 12.9738C5.69961 13.6025 5.36363 14.4445 5.37122 15.3185C5.37881 16.1925 5.72938 17.0285 6.3474 17.6465C6.96543 18.2646 7.80147 18.6151 8.67546 18.6227C9.54945 18.6303 10.3915 18.2943 11.0201 17.6871L12.1601 16.5471" stroke="#379BFB" stroke-width="1.5" stroke-linecap="round" stroke-linejoin="round"/>
</g>
<defs>
<linearGradient id="paint0_linear_3427_8403" x1="24" y1="19.4434" x2="6.59464" y2="-0.893454" gradientUnits="userSpaceOnUse">
<stop stop-color="#CFF0FF"/>
<stop offset="1" stop-color="#E1F5FF"/>
</linearGradient>
<clipPath id="clip0_3427_8403">
<rect width="16" height="16" fill="white" transform="translate(4 4)"/>
</clipPath>
</defs>
</svg>
