<svg width="44" height="44" viewBox="0 0 44 44" fill="none" xmlns="http://www.w3.org/2000/svg">
<rect x="10" y="9.94727" width="24" height="24" rx="2" fill="url(#paint0_linear_3103_9292)" fill-opacity="0.7"/>
<g clip-path="url(#clip0_3103_9292)">
<path d="M20.6667 22.6142C20.953 22.997 21.3183 23.3137 21.7378 23.5429C22.1572 23.772 22.6211 23.9083 23.0978 23.9425C23.5746 23.9766 24.0531 23.9078 24.501 23.7408C24.9488 23.5737 25.3555 23.3123 25.6934 22.9742L27.6934 20.9742C28.3006 20.3456 28.6366 19.5036 28.629 18.6296C28.6214 17.7556 28.2708 16.9195 27.6528 16.3015C27.0348 15.6835 26.1987 15.3329 25.3248 15.3253C24.4508 15.3177 23.6088 15.6537 22.9801 16.2609L21.8334 17.4009" stroke="#379BFB" stroke-width="1.5" stroke-linecap="round" stroke-linejoin="round"/>
<path d="M23.3332 21.2811C23.0469 20.8983 22.6817 20.5816 22.2622 20.3524C21.8427 20.1233 21.3789 19.987 20.9021 19.9529C20.4254 19.9187 19.9468 19.9875 19.499 20.1546C19.0512 20.3216 18.6445 20.583 18.3066 20.9211L16.3066 22.9211C15.6994 23.5497 15.3634 24.3918 15.371 25.2657C15.3786 26.1397 15.7291 26.9758 16.3472 27.5938C16.9652 28.2118 17.8012 28.5624 18.6752 28.57C19.5492 28.5776 20.3912 28.2416 21.0199 27.6344L22.1599 26.4944" stroke="#379BFB" stroke-width="1.5" stroke-linecap="round" stroke-linejoin="round"/>
</g>
<defs>
<linearGradient id="paint0_linear_3103_9292" x1="34" y1="29.3907" x2="16.5946" y2="9.05381" gradientUnits="userSpaceOnUse">
<stop stop-color="#CFF0FF"/>
<stop offset="1" stop-color="#E1F5FF"/>
</linearGradient>
<clipPath id="clip0_3103_9292">
<rect width="16" height="16" fill="white" transform="translate(14 13.9473)"/>
</clipPath>
</defs>
</svg>
