<svg width="24" height="24" viewBox="0 0 24 24" fill="none" xmlns="http://www.w3.org/2000/svg">
<path d="M21 8C22.1046 8 23 8.89543 23 10V14C23 15.1046 22.1046 16 21 16H19.9381C19.4868 19.6194 16.6176 22.488 12.9979 22.9384C12.4498 23.0066 12 22.5523 12 22C12 21.4477 12.4511 21.0087 12.9958 20.9177C15.8356 20.4434 18 17.9744 18 15V9C18 5.68629 15.3137 3 12 3C8.68629 3 6 5.68629 6 9V14C6 15.1046 5.10457 16 4 16H3C1.89543 16 1 15.1046 1 14V10C1 8.89543 1.89543 8 3 8H4.06189C4.55399 4.05369 7.92038 1 12 1C16.0796 1 19.446 4.05369 19.9381 8H21ZM8.63714 16.261C8.13642 16.0287 7.99645 15.4057 8.28901 14.9376C8.58195 14.4689 9.19759 14.3356 9.70835 14.5469C10.4144 14.8389 11.1884 15 12 15C12.8116 15 13.5856 14.8389 14.2916 14.5469C14.8024 14.3356 15.418 14.4689 15.711 14.9376C16.0036 15.4057 15.8636 16.0287 15.3629 16.261C14.3405 16.7353 13.2012 17 12 17C10.7988 17 9.65948 16.7353 8.63714 16.261Z" fill="#379BFB"/>
</svg>
