<svg width="24" height="24" viewBox="0 0 24 24" fill="none" xmlns="http://www.w3.org/2000/svg">
<circle cx="21" cy="10.0527" r="3" fill="#379BFB"/>
<path fill-rule="evenodd" clip-rule="evenodd" d="M19.7891 1.05765C19.9945 1.03741 20.2012 1.07992 20.3857 1.1807C20.5703 1.28155 20.7255 1.43711 20.834 1.62894C20.9423 1.82061 20.9999 2.04135 21 2.26664V16.8389C20.9999 17.0642 20.9423 17.2849 20.834 17.4766C20.7255 17.6684 20.5703 17.824 20.3857 17.9248C20.2012 18.0256 19.9945 18.0681 19.7891 18.0479C19.5836 18.0276 19.3877 17.9449 19.2227 17.8096C16.5714 15.5176 13.268 14.3151 9.88867 14.4102H9.67285C9.73706 16.2278 10.3845 17.9856 11.5332 19.4444C11.9044 19.9158 12.064 20.5085 11.9766 21.0918C11.889 21.6753 11.5615 22.2021 11.0664 22.5557C10.5714 22.9092 9.94939 23.0609 9.33691 22.9776C8.7243 22.8942 8.17111 22.5829 7.7998 22.1114C6.26482 20.1622 5.3282 17.064 5.07324 14.4102H3.22266C2.63329 14.4102 2.06714 14.1537 1.65039 13.6983C1.23391 13.2429 1.00002 12.6253 1 11.9815V7.12406C1.00004 6.48021 1.23391 5.86263 1.65039 5.40726C2.06714 4.95182 2.63329 4.69535 3.22266 4.69535H9.88867C13.268 4.79048 16.5714 3.5879 19.2227 1.29593C19.3877 1.1607 19.5836 1.0779 19.7891 1.05765Z" fill="url(#paint0_linear_3103_9093)" fill-opacity="0.75"/>
<path d="M10 5.05273L10 14.0527" stroke="#3BAEFF" stroke-width="2" stroke-linecap="round"/>
<defs>
<linearGradient id="paint0_linear_3103_9093" x1="23" y1="18.9999" x2="7.95984" y2="0.523884" gradientUnits="userSpaceOnUse">
<stop stop-color="#CFF0FF"/>
<stop offset="1" stop-color="#E1F5FF"/>
</linearGradient>
</defs>
</svg>
