<svg width="20" height="20" viewBox="0 0 20 20" fill="none" xmlns="http://www.w3.org/2000/svg">
<path d="M8.33325 9.16602V14.166" stroke="#80839C" stroke-width="1.5" stroke-linecap="round" stroke-linejoin="round"/>
<path d="M11.6667 9.16602V14.166" stroke="#80839C" stroke-width="1.5" stroke-linecap="round" stroke-linejoin="round"/>
<path d="M15.8334 5V16.6667C15.8334 17.1087 15.6578 17.5326 15.3453 17.8452C15.0327 18.1577 14.6088 18.3333 14.1667 18.3333H5.83341C5.39139 18.3333 4.96746 18.1577 4.6549 17.8452C4.34234 17.5326 4.16675 17.1087 4.16675 16.6667V5" stroke="#80839C" stroke-width="1.5" stroke-linecap="round" stroke-linejoin="round"/>
<path d="M2.5 5H17.5" stroke="#80839C" stroke-width="1.5" stroke-linecap="round" stroke-linejoin="round"/>
<path d="M6.66675 4.99935V3.33268C6.66675 2.89065 6.84234 2.46673 7.1549 2.15417C7.46746 1.84161 7.89139 1.66602 8.33341 1.66602H11.6667C12.1088 1.66602 12.5327 1.84161 12.8453 2.15417C13.1578 2.46673 13.3334 2.89065 13.3334 3.33268V4.99935" stroke="#80839C" stroke-width="1.5" stroke-linecap="round" stroke-linejoin="round"/>
</svg>
