<svg width="20" height="20" viewBox="0 0 20 20" fill="none" xmlns="http://www.w3.org/2000/svg">
<path d="M8.55664 17.5C8.70293 17.7533 8.91332 17.9637 9.16668 18.11C9.42003 18.2563 9.70743 18.3333 9.99997 18.3333C10.2925 18.3333 10.5799 18.2563 10.8333 18.11C11.0866 17.9637 11.297 17.7533 11.4433 17.5" stroke="#379BFB" stroke-width="1.5" stroke-linecap="round" stroke-linejoin="round"/>
<path d="M2.71821 12.771C2.60935 12.8903 2.53751 13.0387 2.51143 13.1981C2.48534 13.3575 2.50615 13.5211 2.5713 13.6688C2.63646 13.8166 2.74316 13.9423 2.87843 14.0306C3.01369 14.1188 3.1717 14.1659 3.33321 14.166H16.6665C16.828 14.1661 16.9861 14.1192 17.1214 14.0311C17.2568 13.943 17.3636 13.8175 17.429 13.6698C17.4943 13.5221 17.5153 13.3586 17.4894 13.1992C17.4635 13.0398 17.3919 12.8913 17.2832 12.7718C16.1749 11.6293 14.9999 10.4152 14.9999 6.66602C14.9999 5.33993 14.4731 4.06816 13.5354 3.13048C12.5977 2.1928 11.326 1.66602 9.99988 1.66602C8.6738 1.66602 7.40203 2.1928 6.46435 3.13048C5.52666 4.06816 4.99988 5.33993 4.99988 6.66602C4.99988 10.4152 3.82405 11.6293 2.71821 12.771Z" stroke="#379BFB" stroke-width="1.5" stroke-linecap="round" stroke-linejoin="round"/>
</svg>
