<svg width="20" height="20" viewBox="0 0 20 20" fill="none" xmlns="http://www.w3.org/2000/svg">
<path d="M16.4 16.084C16.8243 16.084 17.2313 15.9105 17.5314 15.6016C17.8314 15.2927 18 14.8738 18 14.4369V6.20163C18 5.7648 17.8314 5.34587 17.5314 5.03698C17.2313 4.7281 16.8243 4.55457 16.4 4.55457H10.08C9.81241 4.55727 9.54844 4.49084 9.31224 4.36136C9.07604 4.23187 8.87517 4.04347 8.728 3.8134L8.08 2.82516C7.93431 2.59743 7.73598 2.4105 7.5028 2.28113C7.26962 2.15177 7.00889 2.08403 6.744 2.08398H3.6C3.17565 2.08398 2.76869 2.25751 2.46863 2.5664C2.16857 2.87528 2 3.29422 2 3.73104V14.4369C2 14.8738 2.16857 15.2927 2.46863 15.6016C2.76869 15.9105 3.17565 16.084 3.6 16.084H16.4Z" stroke="#379BFB" stroke-width="1.5" stroke-linecap="round" stroke-linejoin="round"/>
</svg>
