<svg width="20" height="20" viewBox="0 0 20 20" fill="none" xmlns="http://www.w3.org/2000/svg">
<path d="M9.62499 13.513C9.50833 13.471 9.39999 13.4 9.29999 13.3L5.7 9.7C5.5 9.5 5.404 9.26667 5.412 9C5.42 8.73333 5.516 8.5 5.7 8.3C5.9 8.1 6.13766 7.996 6.413 7.988C6.68833 7.98 6.92566 8.07567 7.125 8.275L8.99999 10.15V3C8.99999 2.71667 9.09599 2.47934 9.28799 2.288C9.47999 2.09667 9.71733 2.00067 9.99999 2C10.2827 1.99934 10.5203 2.09534 10.713 2.288C10.9057 2.48067 11.0013 2.718 11 3V10.15L12.875 8.275C13.075 8.075 13.3127 7.979 13.588 7.987C13.8633 7.995 14.1007 8.09933 14.3 8.3C14.4833 8.5 14.5793 8.73333 14.588 9C14.5967 9.26667 14.5007 9.5 14.3 9.7L10.7 13.3C10.6 13.4 10.4917 13.471 10.375 13.513C10.2583 13.555 10.1333 13.5757 9.99999 13.575C9.86666 13.5743 9.74166 13.5537 9.62499 13.513ZM4 18C3.45 18 2.97933 17.8043 2.588 17.413C2.19667 17.0217 2.00067 16.5507 2 16V14C2 13.7167 2.096 13.4793 2.288 13.288C2.48 13.0967 2.71733 13.0007 3 13C3.28267 12.9993 3.52033 13.0953 3.713 13.288C3.90566 13.4807 4.00133 13.718 4 14V16H16V14C16 13.7167 16.096 13.4793 16.288 13.288C16.48 13.0967 16.7173 13.0007 17 13C17.2827 12.9993 17.5203 13.0953 17.713 13.288C17.9057 13.4807 18.0013 13.718 18 14V16C18 16.55 17.8043 17.021 17.413 17.413C17.0217 17.805 16.5507 18.0007 16 18H4Z" fill="#80839C"/>
</svg>
