<svg width="20" height="20" viewBox="0 0 20 20" fill="none" xmlns="http://www.w3.org/2000/svg">
<path d="M11.225 2.5H4.75C4.28587 2.5 3.84075 2.65804 3.51256 2.93934C3.18437 3.22064 3 3.60218 3 4V16C3 16.3978 3.18437 16.7794 3.51256 17.0607C3.84075 17.342 4.28587 17.5 4.75 17.5H15.25C15.7141 17.5 16.1592 17.342 16.4874 17.0607C16.8156 16.7794 17 16.3978 17 16V10.45" stroke="#80839C" stroke-width="1.5" stroke-linecap="round" stroke-linejoin="round"/>
<path d="M18.44 4.76414C18.7986 4.40555 19 3.91921 19 3.41209C19 2.90497 18.7986 2.41862 18.44 2.06004C18.0815 1.70145 17.5952 1.5 17.0881 1.5C16.581 1.5 16.0947 1.70145 15.7362 2.06004L11.2268 6.57167C11.0128 6.78557 10.8562 7.04996 10.7714 7.34041L10.018 9.92389C9.99541 10.0014 9.99406 10.0835 10.0141 10.1616C10.0341 10.2398 10.0748 10.3111 10.1318 10.3682C10.1889 10.4252 10.2602 10.4659 10.3383 10.4859C10.4165 10.5059 10.4986 10.5046 10.576 10.482L13.1593 9.72856C13.4497 9.64374 13.7141 9.48709 13.9279 9.27307L18.44 4.76414Z" stroke="#80839C" stroke-width="1.5" stroke-linecap="round" stroke-linejoin="round"/>
</svg>
