<svg width="16" height="16" viewBox="0 0 16 16" fill="none" xmlns="http://www.w3.org/2000/svg">
<path d="M14 6C14.0005 5.78874 13.9592 5.57947 13.8784 5.38427C13.7976 5.18906 13.679 5.01179 13.5293 4.86267L11.1373 2.47067C10.9882 2.32102 10.8109 2.20238 10.6157 2.12159C10.4205 2.04081 10.2113 1.99949 10 2H3.33333C2.97971 2 2.64057 2.14048 2.39052 2.39053C2.14048 2.64058 2 2.97972 2 3.33334V12.6667C2 13.0203 2.14048 13.3594 2.39052 13.6095C2.64057 13.8595 2.97971 14 3.33333 14H12.6667C13.0203 14 13.3594 13.8595 13.6095 13.6095C13.8595 13.3594 14 13.0203 14 12.6667V6Z" stroke="#80839C" stroke-width="1.5" stroke-linecap="round" stroke-linejoin="round"/>
<path d="M10 2V5.33333C10 5.51014 10.0702 5.67971 10.1953 5.80474C10.3203 5.92976 10.4899 6 10.6667 6H14" stroke="#80839C" stroke-width="1.5" stroke-linecap="round" stroke-linejoin="round"/>
</svg>
