<svg width="28" height="28" viewBox="0 0 28 28" fill="none" xmlns="http://www.w3.org/2000/svg">
<path d="M17.5 24.5V15.1667C17.5 14.8572 17.3771 14.5605 17.1583 14.3417C16.9395 14.1229 16.6428 14 16.3333 14H11.6667C11.3572 14 11.0605 14.1229 10.8417 14.3417C10.6229 14.5605 10.5 14.8572 10.5 15.1667V24.5" stroke="#379BFB" stroke-width="2" stroke-linecap="round" stroke-linejoin="round"/>
<path d="M3.5 11.6669C3.49992 11.3275 3.57389 10.9921 3.71675 10.6842C3.85962 10.3763 4.06793 10.1033 4.32717 9.88423L12.4938 2.88423C12.915 2.52829 13.4486 2.33301 14 2.33301C14.5514 2.33301 15.085 2.52829 15.5062 2.88423L23.6728 9.88423C23.9321 10.1033 24.1404 10.3763 24.2832 10.6842C24.4261 10.9921 24.5001 11.3275 24.5 11.6669V22.1669C24.5 22.7857 24.2542 23.3792 23.8166 23.8168C23.379 24.2544 22.7855 24.5002 22.1667 24.5002H5.83333C5.21449 24.5002 4.621 24.2544 4.18342 23.8168C3.74583 23.3792 3.5 22.7857 3.5 22.1669V11.6669Z" stroke="#379BFB" stroke-width="2" stroke-linecap="round" stroke-linejoin="round"/>
</svg>
