<svg width="24" height="24" viewBox="0 0 24 24" fill="none" xmlns="http://www.w3.org/2000/svg">
<path d="M9.67082 4.13615C9.72591 3.55649 9.99515 3.0182 10.4259 2.62643C10.8567 2.23467 11.418 2.01758 12.0003 2.01758C12.5826 2.01758 13.1439 2.23467 13.5747 2.62643C14.0055 3.0182 14.2747 3.55649 14.3298 4.13615C14.3629 4.51061 14.4858 4.87157 14.688 5.18849C14.8901 5.50541 15.1657 5.76896 15.4913 5.95683C15.8169 6.1447 16.183 6.25135 16.5585 6.26777C16.9341 6.28419 17.3081 6.20989 17.6488 6.05115C18.1779 5.81093 18.7775 5.77617 19.3308 5.95364C19.8841 6.1311 20.3516 6.5081 20.6423 7.01126C20.933 7.51441 21.0261 8.10772 20.9035 8.67572C20.7808 9.24372 20.4512 9.74577 19.9788 10.0842C19.6712 10.3 19.4201 10.5868 19.2467 10.9202C19.0734 11.2536 18.9829 11.6239 18.9829 11.9997C18.9829 12.3754 19.0734 12.7457 19.2467 13.0791C19.4201 13.4125 19.6712 13.6993 19.9788 13.9152C20.4512 14.2535 20.7808 14.7556 20.9035 15.3236C21.0261 15.8916 20.933 16.4849 20.6423 16.988C20.3516 17.4912 19.8841 17.8682 19.3308 18.0457C18.7775 18.2231 18.1779 18.1884 17.6488 17.9482C17.3081 17.7894 16.9341 17.7151 16.5585 17.7315C16.183 17.7479 15.8169 17.8546 15.4913 18.0425C15.1657 18.2303 14.8901 18.4939 14.688 18.8108C14.4858 19.1277 14.3629 19.4887 14.3298 19.8632C14.2747 20.4428 14.0055 20.9811 13.5747 21.3729C13.1439 21.7646 12.5826 21.9817 12.0003 21.9817C11.418 21.9817 10.8567 21.7646 10.4259 21.3729C9.99515 20.9811 9.72591 20.4428 9.67082 19.8632C9.63776 19.4886 9.51491 19.1275 9.31268 18.8104C9.11045 18.4934 8.83479 18.2298 8.50905 18.0419C8.18331 17.854 7.81708 17.7474 7.4414 17.7311C7.06571 17.7147 6.69162 17.7892 6.35082 17.9482C5.82171 18.1884 5.22214 18.2231 4.66882 18.0457C4.11549 17.8682 3.64799 17.4912 3.3573 16.988C3.06661 16.4849 2.97353 15.8916 3.09618 15.3236C3.21882 14.7556 3.54842 14.2535 4.02082 13.9152C4.32844 13.6993 4.57955 13.4125 4.7529 13.0791C4.92626 12.7457 5.01677 12.3754 5.01677 11.9997C5.01677 11.6239 4.92626 11.2536 4.7529 10.9202C4.57955 10.5868 4.32844 10.3 4.02082 10.0842C3.54908 9.7456 3.22007 9.24375 3.09772 8.67613C2.97537 8.10852 3.06842 7.51569 3.3588 7.01286C3.64918 6.51004 4.11613 6.13313 4.66891 5.95539C5.22168 5.77766 5.8208 5.81179 6.34982 6.05115C6.69057 6.20989 7.06456 6.28419 7.44012 6.26777C7.81567 6.25135 8.18175 6.1447 8.50735 5.95683C8.83296 5.76896 9.10851 5.50541 9.31068 5.18849C9.51286 4.87157 9.6357 4.51061 9.66882 4.13615" stroke="#222222" stroke-width="2" stroke-linecap="round" stroke-linejoin="round"/>
<path d="M12 15C13.6569 15 15 13.6569 15 12C15 10.3431 13.6569 9 12 9C10.3431 9 9 10.3431 9 12C9 13.6569 10.3431 15 12 15Z" stroke="#222222" stroke-width="2" stroke-linecap="round" stroke-linejoin="round"/>
</svg>
